<?xml version="1.0" encoding="UTF-8" standalone="no"?>
<svg font-size="12px" stroke="black" stroke-linecap="square" viewBox="0 0 560 420" xmlns:dc="http://purl.org/dc/elements/1.1/" style="color-interpolation:auto;image-rendering:auto;text-rendering:auto;color-rendering:auto;shape-rendering:auto" fill="black" version="1.1" stroke-miterlimit="10" xmlns:cc="http://creativecommons.org/ns#" font-family="&apos;Dialog&apos;" xmlns:rdf="http://www.w3.org/1999/02/22-rdf-syntax-ns#" xmlns="http://www.w3.org/2000/svg">
 <defs>
  <clipPath id="a" clipPathUnits="userSpaceOnUse">
   <path d="m0 0h560v420h-560v-420z"/>
  </clipPath>
 </defs>
 <g stroke="#fff" fill="#fff">
  <rect style="clip-path:url(#a)" clip-path="url(#a)" height="420" width="560" y="0" x="0"/>
 </g>
 <g style="color-interpolation:sRGB;image-rendering:optimizeSpeed;color-rendering:optimizeSpeed;shape-rendering:crispEdges" stroke="#fff" fill="#fff">
  <rect height="420" width="560" y="0" x="0"/>
  <path d="m73 374h434v-343h-434z"/>
 </g>
 <g stroke="#262626">
  <g style="color-interpolation:linearRGB;color-rendering:optimizeQuality;image-rendering:optimizeQuality" fill="none">
   <line x1="73" y1="374" x2="507" y2="374"/>
   <line x1="73" y1="374" x2="73" y2="369.66"/>
   <line x1="145.33" y1="374" x2="145.33" y2="369.66"/>
   <line x1="217.67" y1="374" x2="217.67" y2="369.66"/>
   <line x1="290" y1="374" x2="290" y2="369.66"/>
   <line x1="362.33" y1="374" x2="362.33" y2="369.66"/>
   <line x1="434.67" y1="374" x2="434.67" y2="369.66"/>
   <line x1="507" y1="374" x2="507" y2="369.66"/>
  </g>
  <g font-family="&apos;SansSerif&apos;" font-size="13px" fill="#262626">
   <g style="image-rendering:optimizeQuality;text-rendering:geometricPrecision;color-rendering:optimizeQuality;color-interpolation:linearRGB" transform="translate(73 379.33)">
    <text y="14" x="-4" xml:space="preserve">0</text>
   </g>
   <g style="image-rendering:optimizeQuality;text-rendering:geometricPrecision;color-rendering:optimizeQuality;color-interpolation:linearRGB" transform="translate(145.33 379.33)">
    <text y="14" x="-4" xml:space="preserve">5</text>
   </g>
   <g style="image-rendering:optimizeQuality;text-rendering:geometricPrecision;color-rendering:optimizeQuality;color-interpolation:linearRGB" transform="translate(217.67 379.33)">
    <text y="14" x="-7.5" xml:space="preserve">10</text>
   </g>
   <g style="image-rendering:optimizeQuality;text-rendering:geometricPrecision;color-rendering:optimizeQuality;color-interpolation:linearRGB" transform="translate(290 379.33)">
    <text y="14" x="-7.5" xml:space="preserve">15</text>
   </g>
   <g style="image-rendering:optimizeQuality;text-rendering:geometricPrecision;color-rendering:optimizeQuality;color-interpolation:linearRGB" transform="translate(362.33 379.33)">
    <text y="14" x="-7.5" xml:space="preserve">20</text>
   </g>
   <g style="image-rendering:optimizeQuality;text-rendering:geometricPrecision;color-rendering:optimizeQuality;color-interpolation:linearRGB" transform="translate(434.67 379.33)">
    <text y="14" x="-7.5" xml:space="preserve">25</text>
   </g>
   <g style="image-rendering:optimizeQuality;text-rendering:geometricPrecision;color-rendering:optimizeQuality;color-interpolation:linearRGB" transform="translate(507 379.33)">
    <text y="14" x="-7.5" xml:space="preserve">30</text>
   </g>
  </g>
  <g style="color-interpolation:linearRGB;color-rendering:optimizeQuality;image-rendering:optimizeQuality" fill="none">
   <line x1="73" y1="374" x2="73" y2="31"/>
   <line x1="73" y1="374" x2="77.34" y2="374"/>
   <line x1="73" y1="339.7" x2="77.34" y2="339.7"/>
   <line x1="73" y1="305.4" x2="77.34" y2="305.4"/>
   <line x1="73" y1="271.1" x2="77.34" y2="271.1"/>
   <line x1="73" y1="236.8" x2="77.34" y2="236.8"/>
   <line x1="73" y1="202.5" x2="77.34" y2="202.5"/>
   <line x1="73" y1="168.2" x2="77.34" y2="168.2"/>
   <line x1="73" y1="133.9" x2="77.34" y2="133.9"/>
   <line x1="73" y1="99.6" x2="77.34" y2="99.6"/>
   <line x1="73" y1="65.3" x2="77.34" y2="65.3"/>
   <line x1="73" y1="31" x2="77.34" y2="31"/>
  </g>
  <g font-family="&apos;SansSerif&apos;" font-size="13px" fill="#262626">
   <g style="image-rendering:optimizeQuality;text-rendering:geometricPrecision;color-rendering:optimizeQuality;color-interpolation:linearRGB" transform="translate(67.667 374)">
    <text y="5" x="-8" xml:space="preserve">0</text>
   </g>
   <g style="image-rendering:optimizeQuality;text-rendering:geometricPrecision;color-rendering:optimizeQuality;color-interpolation:linearRGB" transform="translate(67.667 339.7)">
    <text y="5" x="-8" xml:space="preserve">5</text>
   </g>
   <g style="image-rendering:optimizeQuality;text-rendering:geometricPrecision;color-rendering:optimizeQuality;color-interpolation:linearRGB" transform="translate(67.667 305.4)">
    <text y="5" x="-15" xml:space="preserve">10</text>
   </g>
   <g style="image-rendering:optimizeQuality;text-rendering:geometricPrecision;color-rendering:optimizeQuality;color-interpolation:linearRGB" transform="translate(67.667 271.1)">
    <text y="5" x="-15" xml:space="preserve">15</text>
   </g>
   <g style="image-rendering:optimizeQuality;text-rendering:geometricPrecision;color-rendering:optimizeQuality;color-interpolation:linearRGB" transform="translate(67.667 236.8)">
    <text y="5" x="-15" xml:space="preserve">20</text>
   </g>
   <g style="image-rendering:optimizeQuality;text-rendering:geometricPrecision;color-rendering:optimizeQuality;color-interpolation:linearRGB" transform="translate(67.667 202.5)">
    <text y="5" x="-15" xml:space="preserve">25</text>
   </g>
   <g style="image-rendering:optimizeQuality;text-rendering:geometricPrecision;color-rendering:optimizeQuality;color-interpolation:linearRGB" transform="translate(67.667 168.2)">
    <text y="5" x="-15" xml:space="preserve">30</text>
   </g>
   <g style="image-rendering:optimizeQuality;text-rendering:geometricPrecision;color-rendering:optimizeQuality;color-interpolation:linearRGB" transform="translate(67.667 133.9)">
    <text y="5" x="-15" xml:space="preserve">35</text>
   </g>
   <g style="image-rendering:optimizeQuality;text-rendering:geometricPrecision;color-rendering:optimizeQuality;color-interpolation:linearRGB" transform="translate(67.667 99.6)">
    <text y="5" x="-15" xml:space="preserve">40</text>
   </g>
   <g style="image-rendering:optimizeQuality;text-rendering:geometricPrecision;color-rendering:optimizeQuality;color-interpolation:linearRGB" transform="translate(67.667 65.3)">
    <text y="5" x="-15" xml:space="preserve">45</text>
   </g>
   <g style="image-rendering:optimizeQuality;text-rendering:geometricPrecision;color-rendering:optimizeQuality;color-interpolation:linearRGB" transform="translate(67.667 31)">
    <text y="5" x="-15" xml:space="preserve">50</text>
   </g>
  </g>
 </g>
 <g style="color-interpolation:linearRGB;color-rendering:optimizeQuality;image-rendering:optimizeQuality" fill="none">
  <line x1="67" y1="49.5" x2="80" y2="49.5"/>
  <line x1="73.5" y1="56" x2="73.5" y2="43"/>
  <line x1="69" y1="54" x2="78" y2="45"/>
  <line x1="69" y1="45" x2="78" y2="54"/>
  <line x1="258" y1="373.5" x2="271" y2="373.5"/>
  <line x1="264.5" y1="380" x2="264.5" y2="367"/>
  <line x1="260" y1="378" x2="269" y2="369"/>
  <line x1="260" y1="369" x2="269" y2="378"/>
  <line x1="437" y1="228.5" x2="450" y2="228.5"/>
  <line x1="443.5" y1="235" x2="443.5" y2="222"/>
  <line x1="439" y1="233" x2="448" y2="224"/>
  <line x1="439" y1="224" x2="448" y2="233"/>
  <line x1="228" y1="98.5" x2="241" y2="98.5"/>
  <line x1="234.5" y1="105" x2="234.5" y2="92"/>
  <line x1="230" y1="103" x2="239" y2="94"/>
  <line x1="230" y1="94" x2="239" y2="103"/>
  <line x1="279" y1="273.5" x2="292" y2="273.5"/>
  <line x1="285.5" y1="280" x2="285.5" y2="267"/>
  <line x1="281" y1="278" x2="290" y2="269"/>
  <line x1="281" y1="269" x2="290" y2="278"/>
  <line y2="49.799" y1="49.799" stroke="#0072bd" x2="73" x1="73"/>
  <line y2="374" y1="49.799" stroke="#d95319" x2="264.85" x1="73"/>
  <line y2="228.97" y1="49.799" stroke="#edb120" x2="443.95" x1="73"/>
  <line y2="98.822" y1="49.799" stroke="#7e2f8e" x2="234.34" x1="73"/>
  <line y2="273.12" y1="49.799" stroke="#77ac30" x2="285.22" x1="73"/>
  <line y2="49.799" y1="374" stroke="#4dbeee" x2="73" x1="264.85"/>
  <line y2="374" y1="374" stroke="#a2142f" x2="264.85" x1="264.85"/>
  <line y2="228.97" y1="374" stroke="#0072bd" x2="443.95" x1="264.85"/>
  <line y2="98.822" y1="374" stroke="#d95319" x2="234.34" x1="264.85"/>
  <line y2="273.12" y1="374" stroke="#edb120" x2="285.22" x1="264.85"/>
  <line y2="49.799" y1="228.97" stroke="#7e2f8e" x2="73" x1="443.95"/>
  <line y2="374" y1="228.97" stroke="#77ac30" x2="264.85" x1="443.95"/>
  <line y2="228.97" y1="228.97" stroke="#4dbeee" x2="443.95" x1="443.95"/>
  <line y2="98.822" y1="228.97" stroke="#a2142f" x2="234.34" x1="443.95"/>
  <line y2="273.12" y1="228.97" stroke="#0072bd" x2="285.22" x1="443.95"/>
  <line y2="49.799" y1="98.822" stroke="#d95319" x2="73" x1="234.34"/>
  <line y2="374" y1="98.822" stroke="#edb120" x2="264.85" x1="234.34"/>
  <line y2="228.97" y1="98.822" stroke="#7e2f8e" x2="443.95" x1="234.34"/>
  <line y2="98.822" y1="98.822" stroke="#77ac30" x2="234.34" x1="234.34"/>
  <line y2="273.12" y1="98.822" stroke="#4dbeee" x2="285.22" x1="234.34"/>
  <line y2="49.799" y1="273.12" stroke="#a2142f" x2="73" x1="285.22"/>
  <line y2="374" y1="273.12" stroke="#0072bd" x2="264.85" x1="285.22"/>
  <line y2="228.97" y1="273.12" stroke="#d95319" x2="443.95" x1="285.22"/>
  <line y2="98.822" y1="273.12" stroke="#edb120" x2="234.34" x1="285.22"/>
  <line y2="273.12" y1="273.12" stroke="#7e2f8e" x2="285.22" x1="285.22"/>
 </g>
</svg>
