<?xml version="1.0" encoding="UTF-8" standalone="no"?>
<svg font-size="12px" stroke="black" stroke-linecap="square" viewBox="0 0 560 420" xmlns:dc="http://purl.org/dc/elements/1.1/" style="color-interpolation:auto;image-rendering:auto;text-rendering:auto;color-rendering:auto;shape-rendering:auto" fill="black" version="1.1" stroke-miterlimit="10" xmlns:cc="http://creativecommons.org/ns#" font-family="&apos;Dialog&apos;" xmlns:rdf="http://www.w3.org/1999/02/22-rdf-syntax-ns#" xmlns="http://www.w3.org/2000/svg">
 <defs>
  <clipPath id="a" clipPathUnits="userSpaceOnUse">
   <path d="m0 0h560v420h-560v-420z"/>
  </clipPath>
 </defs>
 <g stroke="#fff" fill="#fff">
  <rect style="clip-path:url(#a)" clip-path="url(#a)" height="420" width="560" y="0" x="0"/>
 </g>
 <g style="color-interpolation:sRGB;image-rendering:optimizeSpeed;color-rendering:optimizeSpeed;shape-rendering:crispEdges" stroke="#fff" fill="#fff">
  <rect height="420" width="560" y="0" x="0"/>
  <path d="m73 374h434v-343h-434z"/>
 </g>
 <g stroke="#262626">
  <g style="color-interpolation:linearRGB;color-rendering:optimizeQuality;image-rendering:optimizeQuality" fill="none">
   <line x1="73" y1="374" x2="507" y2="374"/>
   <line x1="73" y1="374" x2="73" y2="369.66"/>
   <line x1="116.4" y1="374" x2="116.4" y2="369.66"/>
   <line x1="159.8" y1="374" x2="159.8" y2="369.66"/>
   <line x1="203.2" y1="374" x2="203.2" y2="369.66"/>
   <line x1="246.6" y1="374" x2="246.6" y2="369.66"/>
   <line x1="290" y1="374" x2="290" y2="369.66"/>
   <line x1="333.4" y1="374" x2="333.4" y2="369.66"/>
   <line x1="376.8" y1="374" x2="376.8" y2="369.66"/>
   <line x1="420.2" y1="374" x2="420.2" y2="369.66"/>
   <line x1="463.6" y1="374" x2="463.6" y2="369.66"/>
   <line x1="507" y1="374" x2="507" y2="369.66"/>
  </g>
  <g font-family="&apos;SansSerif&apos;" font-size="13px" fill="#262626">
   <g style="image-rendering:optimizeQuality;text-rendering:geometricPrecision;color-rendering:optimizeQuality;color-interpolation:linearRGB" transform="translate(73 379.33)">
    <text y="14" x="-4" xml:space="preserve">0</text>
   </g>
   <g style="image-rendering:optimizeQuality;text-rendering:geometricPrecision;color-rendering:optimizeQuality;color-interpolation:linearRGB" transform="translate(116.4 379.33)">
    <text y="14" x="-7.5" xml:space="preserve">10</text>
   </g>
   <g style="image-rendering:optimizeQuality;text-rendering:geometricPrecision;color-rendering:optimizeQuality;color-interpolation:linearRGB" transform="translate(159.8 379.33)">
    <text y="14" x="-7.5" xml:space="preserve">20</text>
   </g>
   <g style="image-rendering:optimizeQuality;text-rendering:geometricPrecision;color-rendering:optimizeQuality;color-interpolation:linearRGB" transform="translate(203.2 379.33)">
    <text y="14" x="-7.5" xml:space="preserve">30</text>
   </g>
   <g style="image-rendering:optimizeQuality;text-rendering:geometricPrecision;color-rendering:optimizeQuality;color-interpolation:linearRGB" transform="translate(246.6 379.33)">
    <text y="14" x="-7.5" xml:space="preserve">40</text>
   </g>
   <g style="image-rendering:optimizeQuality;text-rendering:geometricPrecision;color-rendering:optimizeQuality;color-interpolation:linearRGB" transform="translate(290 379.33)">
    <text y="14" x="-7.5" xml:space="preserve">50</text>
   </g>
   <g style="image-rendering:optimizeQuality;text-rendering:geometricPrecision;color-rendering:optimizeQuality;color-interpolation:linearRGB" transform="translate(333.4 379.33)">
    <text y="14" x="-7.5" xml:space="preserve">60</text>
   </g>
   <g style="image-rendering:optimizeQuality;text-rendering:geometricPrecision;color-rendering:optimizeQuality;color-interpolation:linearRGB" transform="translate(376.8 379.33)">
    <text y="14" x="-7.5" xml:space="preserve">70</text>
   </g>
   <g style="image-rendering:optimizeQuality;text-rendering:geometricPrecision;color-rendering:optimizeQuality;color-interpolation:linearRGB" transform="translate(420.2 379.33)">
    <text y="14" x="-7.5" xml:space="preserve">80</text>
   </g>
   <g style="image-rendering:optimizeQuality;text-rendering:geometricPrecision;color-rendering:optimizeQuality;color-interpolation:linearRGB" transform="translate(463.6 379.33)">
    <text y="14" x="-7.5" xml:space="preserve">90</text>
   </g>
   <g style="image-rendering:optimizeQuality;text-rendering:geometricPrecision;color-rendering:optimizeQuality;color-interpolation:linearRGB" transform="translate(507 379.33)">
    <text y="14" x="-11.5" xml:space="preserve">100</text>
   </g>
  </g>
  <g style="color-interpolation:linearRGB;color-rendering:optimizeQuality;image-rendering:optimizeQuality" fill="none">
   <line x1="73" y1="374" x2="73" y2="31"/>
   <line x1="73" y1="374" x2="77.34" y2="374"/>
   <line x1="73" y1="339.7" x2="77.34" y2="339.7"/>
   <line x1="73" y1="305.4" x2="77.34" y2="305.4"/>
   <line x1="73" y1="271.1" x2="77.34" y2="271.1"/>
   <line x1="73" y1="236.8" x2="77.34" y2="236.8"/>
   <line x1="73" y1="202.5" x2="77.34" y2="202.5"/>
   <line x1="73" y1="168.2" x2="77.34" y2="168.2"/>
   <line x1="73" y1="133.9" x2="77.34" y2="133.9"/>
   <line x1="73" y1="99.6" x2="77.34" y2="99.6"/>
   <line x1="73" y1="65.3" x2="77.34" y2="65.3"/>
   <line x1="73" y1="31" x2="77.34" y2="31"/>
  </g>
  <g font-family="&apos;SansSerif&apos;" font-size="13px" fill="#262626">
   <g style="image-rendering:optimizeQuality;text-rendering:geometricPrecision;color-rendering:optimizeQuality;color-interpolation:linearRGB" transform="translate(67.667 374)">
    <text y="5" x="-8" xml:space="preserve">0</text>
   </g>
   <g style="image-rendering:optimizeQuality;text-rendering:geometricPrecision;color-rendering:optimizeQuality;color-interpolation:linearRGB" transform="translate(67.667 339.7)">
    <text y="5" x="-15" xml:space="preserve">10</text>
   </g>
   <g style="image-rendering:optimizeQuality;text-rendering:geometricPrecision;color-rendering:optimizeQuality;color-interpolation:linearRGB" transform="translate(67.667 305.4)">
    <text y="5" x="-15" xml:space="preserve">20</text>
   </g>
   <g style="image-rendering:optimizeQuality;text-rendering:geometricPrecision;color-rendering:optimizeQuality;color-interpolation:linearRGB" transform="translate(67.667 271.1)">
    <text y="5" x="-15" xml:space="preserve">30</text>
   </g>
   <g style="image-rendering:optimizeQuality;text-rendering:geometricPrecision;color-rendering:optimizeQuality;color-interpolation:linearRGB" transform="translate(67.667 236.8)">
    <text y="5" x="-15" xml:space="preserve">40</text>
   </g>
   <g style="image-rendering:optimizeQuality;text-rendering:geometricPrecision;color-rendering:optimizeQuality;color-interpolation:linearRGB" transform="translate(67.667 202.5)">
    <text y="5" x="-15" xml:space="preserve">50</text>
   </g>
   <g style="image-rendering:optimizeQuality;text-rendering:geometricPrecision;color-rendering:optimizeQuality;color-interpolation:linearRGB" transform="translate(67.667 168.2)">
    <text y="5" x="-15" xml:space="preserve">60</text>
   </g>
   <g style="image-rendering:optimizeQuality;text-rendering:geometricPrecision;color-rendering:optimizeQuality;color-interpolation:linearRGB" transform="translate(67.667 133.9)">
    <text y="5" x="-15" xml:space="preserve">70</text>
   </g>
   <g style="image-rendering:optimizeQuality;text-rendering:geometricPrecision;color-rendering:optimizeQuality;color-interpolation:linearRGB" transform="translate(67.667 99.6)">
    <text y="5" x="-15" xml:space="preserve">80</text>
   </g>
   <g style="image-rendering:optimizeQuality;text-rendering:geometricPrecision;color-rendering:optimizeQuality;color-interpolation:linearRGB" transform="translate(67.667 65.3)">
    <text y="5" x="-15" xml:space="preserve">90</text>
   </g>
   <g style="image-rendering:optimizeQuality;text-rendering:geometricPrecision;color-rendering:optimizeQuality;color-interpolation:linearRGB" transform="translate(67.667 31)">
    <text y="5" x="-23" xml:space="preserve">100</text>
   </g>
  </g>
 </g>
 <g style="color-interpolation:linearRGB;color-rendering:optimizeQuality;image-rendering:optimizeQuality" stroke="#008033" fill="none">
  <line x1="81" y1="350.5" x2="94" y2="350.5"/>
  <line x1="87.5" y1="357" x2="87.5" y2="344"/>
  <line x1="83" y1="355" x2="92" y2="346"/>
  <line x1="83" y1="346" x2="92" y2="355"/>
  <line x1="493" y1="123.5" x2="506" y2="123.5"/>
  <line x1="499.5" y1="130" x2="499.5" y2="117"/>
  <line x1="495" y1="128" x2="504" y2="119"/>
  <line x1="495" y1="119" x2="504" y2="128"/>
  <line x1="247" y1="85.5" x2="260" y2="85.5"/>
  <line x1="253.5" y1="92" x2="253.5" y2="79"/>
  <line x1="249" y1="90" x2="258" y2="81"/>
  <line x1="249" y1="81" x2="258" y2="90"/>
  <line x1="113" y1="246.5" x2="126" y2="246.5"/>
  <line x1="119.5" y1="253" x2="119.5" y2="240"/>
  <line x1="115" y1="251" x2="124" y2="242"/>
  <line x1="115" y1="242" x2="124" y2="251"/>
  <line x1="346" y1="151.5" x2="359" y2="151.5"/>
  <line x1="352.5" y1="158" x2="352.5" y2="145"/>
  <line x1="348" y1="156" x2="357" y2="147"/>
  <line x1="348" y1="147" x2="357" y2="156"/>
  <g stroke="#000">
   <line y2="362.5" y1="362.5" x2="152" x1="143"/>
   <line y2="358" y1="367" x2="147.5" x1="147.5"/>
   <line y2="359" y1="366" x2="151" x1="144"/>
   <line y2="366" y1="359" x2="151" x1="144"/>
   <line y2="368.5" y1="368.5" x2="265" x1="256"/>
   <line y2="364" y1="373" x2="260.5" x1="260.5"/>
   <line y2="365" y1="372" x2="264" x1="257"/>
   <line y2="372" y1="365" x2="264" x1="257"/>
   <line y2="316.5" y1="316.5" x2="505" x1="496"/>
   <line y2="312" y1="321" x2="500.5" x1="500.5"/>
   <line y2="313" y1="320" x2="504" x1="497"/>
   <line y2="320" y1="313" x2="504" x1="497"/>
   <line y2="155.5" y1="155.5" x2="372" x1="363"/>
   <line y2="151" y1="160" x2="367.5" x1="367.5"/>
   <line y2="152" y1="159" x2="371" x1="364"/>
   <line y2="159" y1="152" x2="371" x1="364"/>
   <line y2="126.5" y1="126.5" x2="432" x1="423"/>
   <line y2="122" y1="131" x2="427.5" x1="427.5"/>
   <line y2="123" y1="130" x2="431" x1="424"/>
   <line y2="130" y1="123" x2="431" x1="424"/>
   <line y2="302.5" y1="302.5" x2="488" x1="479"/>
   <line y2="298" y1="307" x2="483.5" x1="483.5"/>
   <line y2="299" y1="306" x2="487" x1="480"/>
   <line y2="306" y1="299" x2="487" x1="480"/>
   <line y2="312.5" y1="312.5" x2="367" x1="358"/>
   <line y2="308" y1="317" x2="362.5" x1="362.5"/>
   <line y2="309" y1="316" x2="366" x1="359"/>
   <line y2="316" y1="309" x2="366" x1="359"/>
   <line y2="146.5" y1="146.5" x2="229" x1="220"/>
   <line y2="142" y1="151" x2="224.5" x1="224.5"/>
   <line y2="143" y1="150" x2="228" x1="221"/>
   <line y2="150" y1="143" x2="228" x1="221"/>
   <line y2="287.5" y1="287.5" x2="331" x1="322"/>
   <line y2="283" y1="292" x2="326.5" x1="326.5"/>
   <line y2="284" y1="291" x2="330" x1="323"/>
   <line y2="291" y1="284" x2="330" x1="323"/>
   <line y2="256.5" y1="256.5" x2="144" x1="135"/>
   <line y2="252" y1="261" x2="139.5" x1="139.5"/>
   <line y2="253" y1="260" x2="143" x1="136"/>
   <line y2="260" y1="253" x2="143" x1="136"/>
   <line y2="215.5" y1="215.5" x2="78" x1="69"/>
   <line y2="211" y1="220" x2="73.5" x1="73.5"/>
   <line y2="212" y1="219" x2="77" x1="70"/>
   <line y2="219" y1="212" x2="77" x1="70"/>
   <line y2="216.5" y1="216.5" x2="273" x1="264"/>
   <line y2="212" y1="221" x2="268.5" x1="268.5"/>
   <line y2="213" y1="220" x2="272" x1="265"/>
   <line y2="220" y1="213" x2="272" x1="265"/>
   <line y2="134.5" y1="134.5" x2="311" x1="302"/>
   <line y2="130" y1="139" x2="306.5" x1="306.5"/>
   <line y2="131" y1="138" x2="310" x1="303"/>
   <line y2="138" y1="131" x2="310" x1="303"/>
   <line y2="191.5" y1="191.5" x2="498" x1="489"/>
   <line y2="187" y1="196" x2="493.5" x1="493.5"/>
   <line y2="188" y1="195" x2="497" x1="490"/>
   <line y2="195" y1="188" x2="497" x1="490"/>
   <line y2="308.5" y1="308.5" x2="341" x1="332"/>
   <line y2="304" y1="313" x2="336.5" x1="336.5"/>
   <line y2="305" y1="312" x2="340" x1="333"/>
   <line y2="312" y1="305" x2="340" x1="333"/>
   <line y2="274.5" y1="274.5" x2="371" x1="362"/>
   <line y2="270" y1="279" x2="366.5" x1="366.5"/>
   <line y2="271" y1="278" x2="370" x1="363"/>
   <line y2="278" y1="271" x2="370" x1="363"/>
   <line y2="273.5" y1="273.5" x2="350" x1="341"/>
   <line y2="269" y1="278" x2="345.5" x1="345.5"/>
   <line y2="270" y1="277" x2="349" x1="342"/>
   <line y2="277" y1="270" x2="349" x1="342"/>
   <line y2="63.5" y1="63.5" x2="124" x1="115"/>
   <line y2="59" y1="68" x2="119.5" x1="119.5"/>
   <line y2="60" y1="67" x2="123" x1="116"/>
   <line y2="67" y1="60" x2="123" x1="116"/>
   <line y2="91.5" y1="91.5" x2="193" x1="184"/>
   <line y2="87" y1="96" x2="188.5" x1="188.5"/>
   <line y2="88" y1="95" x2="192" x1="185"/>
   <line y2="95" y1="88" x2="192" x1="185"/>
   <line y2="195.5" y1="195.5" x2="109" x1="100"/>
   <line y2="191" y1="200" x2="104.5" x1="104.5"/>
   <line y2="192" y1="199" x2="108" x1="101"/>
   <line y2="199" y1="192" x2="108" x1="101"/>
   <line y2="127.5" y1="127.5" x2="433" x1="424"/>
   <line y2="123" y1="132" x2="428.5" x1="428.5"/>
   <line y2="124" y1="131" x2="432" x1="425"/>
   <line y2="131" y1="124" x2="432" x1="425"/>
   <line y2="93.5" y1="93.5" x2="119" x1="110"/>
   <line y2="89" y1="98" x2="114.5" x1="114.5"/>
   <line y2="90" y1="97" x2="118" x1="111"/>
   <line y2="97" y1="90" x2="118" x1="111"/>
   <line y2="139.5" y1="139.5" x2="328" x1="319"/>
   <line y2="135" y1="144" x2="323.5" x1="323.5"/>
   <line y2="136" y1="143" x2="327" x1="320"/>
   <line y2="143" y1="136" x2="327" x1="320"/>
   <line y2="144.5" y1="144.5" x2="175" x1="166"/>
   <line y2="140" y1="149" x2="170.5" x1="170.5"/>
   <line y2="141" y1="148" x2="174" x1="167"/>
   <line y2="148" y1="141" x2="174" x1="167"/>
   <line y2="191.5" y1="191.5" x2="216" x1="207"/>
   <line y2="187" y1="196" x2="211.5" x1="211.5"/>
   <line y2="188" y1="195" x2="215" x1="208"/>
   <line y2="195" y1="188" x2="215" x1="208"/>
   <line y2="242.5" y1="242.5" x2="176" x1="167"/>
   <line y2="238" y1="247" x2="171.5" x1="171.5"/>
   <line y2="239" y1="246" x2="175" x1="168"/>
   <line y2="246" y1="239" x2="175" x1="168"/>
   <line y2="228.5" y1="228.5" x2="87" x1="78"/>
   <line y2="224" y1="233" x2="82.5" x1="82.5"/>
   <line y2="225" y1="232" x2="86" x1="79"/>
   <line y2="232" y1="225" x2="86" x1="79"/>
   <line y2="355.5" y1="355.5" x2="477" x1="468"/>
   <line y2="351" y1="360" x2="472.5" x1="472.5"/>
   <line y2="352" y1="359" x2="476" x1="469"/>
   <line y2="359" y1="352" x2="476" x1="469"/>
   <line y2="291.5" y1="291.5" x2="493" x1="484"/>
   <line y2="287" y1="296" x2="488.5" x1="488.5"/>
   <line y2="288" y1="295" x2="492" x1="485"/>
   <line y2="295" y1="288" x2="492" x1="485"/>
   <line y2="321.5" y1="321.5" x2="193" x1="184"/>
   <line y2="317" y1="326" x2="188.5" x1="188.5"/>
   <line y2="318" y1="325" x2="192" x1="185"/>
   <line y2="325" y1="318" x2="192" x1="185"/>
   <line y2="152.5" y1="152.5" x2="449" x1="440"/>
   <line y2="148" y1="157" x2="444.5" x1="444.5"/>
   <line y2="149" y1="156" x2="448" x1="441"/>
   <line y2="156" y1="149" x2="448" x1="441"/>
   <line y2="228.5" y1="228.5" x2="155" x1="146"/>
   <line y2="224" y1="233" x2="150.5" x1="150.5"/>
   <line y2="225" y1="232" x2="154" x1="147"/>
   <line y2="232" y1="225" x2="154" x1="147"/>
   <line y2="217.5" y1="217.5" x2="306" x1="297"/>
   <line y2="213" y1="222" x2="301.5" x1="301.5"/>
   <line y2="214" y1="221" x2="305" x1="298"/>
   <line y2="221" y1="214" x2="305" x1="298"/>
   <line y2="206.5" y1="206.5" x2="163" x1="154"/>
   <line y2="202" y1="211" x2="158.5" x1="158.5"/>
   <line y2="203" y1="210" x2="162" x1="155"/>
   <line y2="210" y1="203" x2="162" x1="155"/>
   <line y2="290.5" y1="290.5" x2="398" x1="389"/>
   <line y2="286" y1="295" x2="393.5" x1="393.5"/>
   <line y2="287" y1="294" x2="397" x1="390"/>
   <line y2="294" y1="287" x2="397" x1="390"/>
   <line y2="234.5" y1="234.5" x2="362" x1="353"/>
   <line y2="230" y1="239" x2="357.5" x1="357.5"/>
   <line y2="231" y1="238" x2="361" x1="354"/>
   <line y2="238" y1="231" x2="361" x1="354"/>
   <line y2="106.5" y1="106.5" x2="343" x1="334"/>
   <line y2="102" y1="111" x2="338.5" x1="338.5"/>
   <line y2="103" y1="110" x2="342" x1="335"/>
   <line y2="110" y1="103" x2="342" x1="335"/>
   <line y2="142.5" y1="142.5" x2="416" x1="407"/>
   <line y2="138" y1="147" x2="411.5" x1="411.5"/>
   <line y2="139" y1="146" x2="415" x1="408"/>
   <line y2="146" y1="139" x2="415" x1="408"/>
   <line y2="154.5" y1="154.5" x2="381" x1="372"/>
   <line y2="150" y1="159" x2="376.5" x1="376.5"/>
   <line y2="151" y1="158" x2="380" x1="373"/>
   <line y2="158" y1="151" x2="380" x1="373"/>
   <line y2="93.5" y1="93.5" x2="459" x1="450"/>
   <line y2="89" y1="98" x2="454.5" x1="454.5"/>
   <line y2="90" y1="97" x2="458" x1="451"/>
   <line y2="97" y1="90" x2="458" x1="451"/>
   <line y2="47.5" y1="47.5" x2="225" x1="216"/>
   <line y2="43" y1="52" x2="220.5" x1="220.5"/>
   <line y2="44" y1="51" x2="224" x1="217"/>
   <line y2="51" y1="44" x2="224" x1="217"/>
   <line y2="99.5" y1="99.5" x2="359" x1="350"/>
   <line y2="95" y1="104" x2="354.5" x1="354.5"/>
   <line y2="96" y1="103" x2="358" x1="351"/>
   <line y2="103" y1="96" x2="358" x1="351"/>
   <line y2="320.5" y1="320.5" x2="504" x1="495"/>
   <line y2="316" y1="325" x2="499.5" x1="499.5"/>
   <line y2="317" y1="324" x2="503" x1="496"/>
   <line y2="324" y1="317" x2="503" x1="496"/>
   <line y2="109.5" y1="109.5" x2="365" x1="356"/>
   <line y2="105" y1="114" x2="360.5" x1="360.5"/>
   <line y2="106" y1="113" x2="364" x1="357"/>
   <line y2="113" y1="106" x2="364" x1="357"/>
   <line y2="165.5" y1="165.5" x2="129" x1="120"/>
   <line y2="161" y1="170" x2="124.5" x1="124.5"/>
   <line y2="162" y1="169" x2="128" x1="121"/>
   <line y2="169" y1="162" x2="128" x1="121"/>
   <line y2="212.5" y1="212.5" x2="418" x1="409"/>
   <line y2="208" y1="217" x2="413.5" x1="413.5"/>
   <line y2="209" y1="216" x2="417" x1="410"/>
   <line y2="216" y1="209" x2="417" x1="410"/>
   <line y2="171.5" y1="171.5" x2="130" x1="121"/>
   <line y2="167" y1="176" x2="125.5" x1="125.5"/>
   <line y2="168" y1="175" x2="129" x1="122"/>
   <line y2="175" y1="168" x2="129" x1="122"/>
   <line y2="193.5" y1="193.5" x2="251" x1="242"/>
   <line y2="189" y1="198" x2="246.5" x1="246.5"/>
   <line y2="190" y1="197" x2="250" x1="243"/>
   <line y2="197" y1="190" x2="250" x1="243"/>
   <line y2="71.5" y1="71.5" x2="321" x1="312"/>
   <line y2="67" y1="76" x2="316.5" x1="316.5"/>
   <line y2="68" y1="75" x2="320" x1="313"/>
   <line y2="75" y1="68" x2="320" x1="313"/>
   <line y2="308.5" y1="308.5" x2="368" x1="359"/>
   <line y2="304" y1="313" x2="363.5" x1="363.5"/>
   <line y2="305" y1="312" x2="367" x1="360"/>
   <line y2="312" y1="305" x2="367" x1="360"/>
   <line y2="227.5" y1="227.5" x2="315" x1="306"/>
   <line y2="223" y1="232" x2="310.5" x1="310.5"/>
   <line y2="224" y1="231" x2="314" x1="307"/>
   <line y2="231" y1="224" x2="314" x1="307"/>
   <line y2="88.5" y1="88.5" x2="247" x1="238"/>
   <line y2="84" y1="93" x2="242.5" x1="242.5"/>
   <line y2="85" y1="92" x2="246" x1="239"/>
   <line y2="92" y1="85" x2="246" x1="239"/>
   <line y2="345.5" y1="345.5" x2="436" x1="427"/>
   <line y2="341" y1="350" x2="431.5" x1="431.5"/>
   <line y2="342" y1="349" x2="435" x1="428"/>
   <line y2="349" y1="342" x2="435" x1="428"/>
   <line y2="174.5" y1="174.5" x2="344" x1="335"/>
   <line y2="170" y1="179" x2="339.5" x1="339.5"/>
   <line y2="171" y1="178" x2="343" x1="336"/>
   <line y2="178" y1="171" x2="343" x1="336"/>
   <line y2="162.5" y1="162.5" x2="204" x1="195"/>
   <line y2="158" y1="167" x2="199.5" x1="199.5"/>
   <line y2="159" y1="166" x2="203" x1="196"/>
   <line y2="166" y1="159" x2="203" x1="196"/>
   <line y2="211.5" y1="211.5" x2="391" x1="382"/>
   <line y2="207" y1="216" x2="386.5" x1="386.5"/>
   <line y2="208" y1="215" x2="390" x1="383"/>
   <line y2="215" y1="208" x2="390" x1="383"/>
   <line y2="186.5" y1="186.5" x2="261" x1="252"/>
   <line y2="182" y1="191" x2="256.5" x1="256.5"/>
   <line y2="183" y1="190" x2="260" x1="253"/>
   <line y2="190" y1="183" x2="260" x1="253"/>
   <line y2="225.5" y1="225.5" x2="274" x1="265"/>
   <line y2="221" y1="230" x2="269.5" x1="269.5"/>
   <line y2="222" y1="229" x2="273" x1="266"/>
   <line y2="229" y1="222" x2="273" x1="266"/>
   <line y2="40.5" y1="40.5" x2="303" x1="294"/>
   <line y2="36" y1="45" x2="298.5" x1="298.5"/>
   <line y2="37" y1="44" x2="302" x1="295"/>
   <line y2="44" y1="37" x2="302" x1="295"/>
   <line y2="314.5" y1="314.5" x2="135" x1="126"/>
   <line y2="310" y1="319" x2="130.5" x1="130.5"/>
   <line y2="311" y1="318" x2="134" x1="127"/>
   <line y2="318" y1="311" x2="134" x1="127"/>
   <line y2="255.5" y1="255.5" x2="444" x1="435"/>
   <line y2="251" y1="260" x2="439.5" x1="439.5"/>
   <line y2="252" y1="259" x2="443" x1="436"/>
   <line y2="259" y1="252" x2="443" x1="436"/>
   <line y2="308.5" y1="308.5" x2="241" x1="232"/>
   <line y2="304" y1="313" x2="236.5" x1="236.5"/>
   <line y2="305" y1="312" x2="240" x1="233"/>
   <line y2="312" y1="305" x2="240" x1="233"/>
   <line y2="292.5" y1="292.5" x2="385" x1="376"/>
   <line y2="288" y1="297" x2="380.5" x1="380.5"/>
   <line y2="289" y1="296" x2="384" x1="377"/>
   <line y2="296" y1="289" x2="384" x1="377"/>
   <line y2="168.5" y1="168.5" x2="118" x1="109"/>
   <line y2="164" y1="173" x2="113.5" x1="113.5"/>
   <line y2="165" y1="172" x2="117" x1="110"/>
   <line y2="172" y1="165" x2="117" x1="110"/>
   <line y2="170.5" y1="170.5" x2="191" x1="182"/>
   <line y2="166" y1="175" x2="186.5" x1="186.5"/>
   <line y2="167" y1="174" x2="190" x1="183"/>
   <line y2="174" y1="167" x2="190" x1="183"/>
   <line y2="31.5" y1="31.5" x2="133" x1="124"/>
   <line y2="27" y1="36" x2="128.5" x1="128.5"/>
   <line y2="28" y1="35" x2="132" x1="125"/>
   <line y2="35" y1="28" x2="132" x1="125"/>
   <line y2="135.5" y1="135.5" x2="282" x1="273"/>
   <line y2="131" y1="140" x2="277.5" x1="277.5"/>
   <line y2="132" y1="139" x2="281" x1="274"/>
   <line y2="139" y1="132" x2="281" x1="274"/>
   <line y2="353.5" y1="353.5" x2="426" x1="417"/>
   <line y2="349" y1="358" x2="421.5" x1="421.5"/>
   <line y2="350" y1="357" x2="425" x1="418"/>
   <line y2="357" y1="350" x2="425" x1="418"/>
   <line y2="318.5" y1="318.5" x2="213" x1="204"/>
   <line y2="314" y1="323" x2="208.5" x1="208.5"/>
   <line y2="315" y1="322" x2="212" x1="205"/>
   <line y2="322" y1="315" x2="212" x1="205"/>
   <line y2="208.5" y1="208.5" x2="263" x1="254"/>
   <line y2="204" y1="213" x2="258.5" x1="258.5"/>
   <line y2="205" y1="212" x2="262" x1="255"/>
   <line y2="212" y1="205" x2="262" x1="255"/>
   <line y2="281.5" y1="281.5" x2="476" x1="467"/>
   <line y2="277" y1="286" x2="471.5" x1="471.5"/>
   <line y2="278" y1="285" x2="475" x1="468"/>
   <line y2="285" y1="278" x2="475" x1="468"/>
   <line y2="173.5" y1="173.5" x2="227" x1="218"/>
   <line y2="169" y1="178" x2="222.5" x1="222.5"/>
   <line y2="170" y1="177" x2="226" x1="219"/>
   <line y2="177" y1="170" x2="226" x1="219"/>
   <line y2="155.5" y1="155.5" x2="487" x1="478"/>
   <line y2="151" y1="160" x2="482.5" x1="482.5"/>
   <line y2="152" y1="159" x2="486" x1="479"/>
   <line y2="159" y1="152" x2="486" x1="479"/>
   <line y2="281.5" y1="281.5" x2="398" x1="389"/>
   <line y2="277" y1="286" x2="393.5" x1="393.5"/>
   <line y2="278" y1="285" x2="397" x1="390"/>
   <line y2="285" y1="278" x2="397" x1="390"/>
   <line y2="59.5" y1="59.5" x2="245" x1="236"/>
   <line y2="55" y1="64" x2="240.5" x1="240.5"/>
   <line y2="56" y1="63" x2="244" x1="237"/>
   <line y2="63" y1="56" x2="244" x1="237"/>
   <line y2="223.5" y1="223.5" x2="199" x1="190"/>
   <line y2="219" y1="228" x2="194.5" x1="194.5"/>
   <line y2="220" y1="227" x2="198" x1="191"/>
   <line y2="227" y1="220" x2="198" x1="191"/>
   <line y2="230.5" y1="230.5" x2="487" x1="478"/>
   <line y2="226" y1="235" x2="482.5" x1="482.5"/>
   <line y2="227" y1="234" x2="486" x1="479"/>
   <line y2="234" y1="227" x2="486" x1="479"/>
   <line y2="342.5" y1="342.5" x2="202" x1="193"/>
   <line y2="338" y1="347" x2="197.5" x1="197.5"/>
   <line y2="339" y1="346" x2="201" x1="194"/>
   <line y2="346" y1="339" x2="201" x1="194"/>
   <line y2="135.5" y1="135.5" x2="369" x1="360"/>
   <line y2="131" y1="140" x2="364.5" x1="364.5"/>
   <line y2="132" y1="139" x2="368" x1="361"/>
   <line y2="139" y1="132" x2="368" x1="361"/>
   <line y2="196.5" y1="196.5" x2="457" x1="448"/>
   <line y2="192" y1="201" x2="452.5" x1="452.5"/>
   <line y2="193" y1="200" x2="456" x1="449"/>
   <line y2="200" y1="193" x2="456" x1="449"/>
   <line y2="337.5" y1="337.5" x2="219" x1="210"/>
   <line y2="333" y1="342" x2="214.5" x1="214.5"/>
   <line y2="334" y1="341" x2="218" x1="211"/>
   <line y2="341" y1="334" x2="218" x1="211"/>
   <line y2="309.5" y1="309.5" x2="410" x1="401"/>
   <line y2="305" y1="314" x2="405.5" x1="405.5"/>
   <line y2="306" y1="313" x2="409" x1="402"/>
   <line y2="313" y1="306" x2="409" x1="402"/>
   <line y2="167.5" y1="167.5" x2="80" x1="71"/>
   <line y2="163" y1="172" x2="75.5" x1="75.5"/>
   <line y2="164" y1="171" x2="79" x1="72"/>
   <line y2="171" y1="164" x2="79" x1="72"/>
   <line y2="286.5" y1="286.5" x2="439" x1="430"/>
   <line y2="282" y1="291" x2="434.5" x1="434.5"/>
   <line y2="283" y1="290" x2="438" x1="431"/>
   <line y2="290" y1="283" x2="438" x1="431"/>
   <line y2="215.5" y1="215.5" x2="238" x1="229"/>
   <line y2="211" y1="220" x2="233.5" x1="233.5"/>
   <line y2="212" y1="219" x2="237" x1="230"/>
   <line y2="219" y1="212" x2="237" x1="230"/>
   <line y2="215.5" y1="215.5" x2="262" x1="253"/>
   <line y2="211" y1="220" x2="257.5" x1="257.5"/>
   <line y2="212" y1="219" x2="261" x1="254"/>
   <line y2="219" y1="212" x2="261" x1="254"/>
   <line y2="313.5" y1="313.5" x2="93" x1="84"/>
   <line y2="309" y1="318" x2="88.5" x1="88.5"/>
   <line y2="310" y1="317" x2="92" x1="85"/>
   <line y2="317" y1="310" x2="92" x1="85"/>
   <line y2="342.5" y1="342.5" x2="261" x1="252"/>
   <line y2="338" y1="347" x2="256.5" x1="256.5"/>
   <line y2="339" y1="346" x2="260" x1="253"/>
   <line y2="346" y1="339" x2="260" x1="253"/>
   <line y2="75.5" y1="75.5" x2="312" x1="303"/>
   <line y2="71" y1="80" x2="307.5" x1="307.5"/>
   <line y2="72" y1="79" x2="311" x1="304"/>
   <line y2="79" y1="72" x2="311" x1="304"/>
   <line y2="270.5" y1="270.5" x2="504" x1="495"/>
   <line y2="266" y1="275" x2="499.5" x1="499.5"/>
   <line y2="267" y1="274" x2="503" x1="496"/>
   <line y2="274" y1="267" x2="503" x1="496"/>
   <line y2="147.5" y1="147.5" x2="143" x1="134"/>
   <line y2="143" y1="152" x2="138.5" x1="138.5"/>
   <line y2="144" y1="151" x2="142" x1="135"/>
   <line y2="151" y1="144" x2="142" x1="135"/>
   <line y2="286.5" y1="286.5" x2="107" x1="98"/>
   <line y2="282" y1="291" x2="102.5" x1="102.5"/>
   <line y2="283" y1="290" x2="106" x1="99"/>
   <line y2="290" y1="283" x2="106" x1="99"/>
   <line y2="145.5" y1="145.5" x2="382" x1="373"/>
   <line y2="141" y1="150" x2="377.5" x1="377.5"/>
   <line y2="142" y1="149" x2="381" x1="374"/>
   <line y2="149" y1="142" x2="381" x1="374"/>
   <line y2="263.5" y1="263.5" x2="412" x1="403"/>
   <line y2="259" y1="268" x2="407.5" x1="407.5"/>
   <line y2="260" y1="267" x2="411" x1="404"/>
   <line y2="267" y1="260" x2="411" x1="404"/>
   <line y2="148.5" y1="148.5" x2="258" x1="249"/>
   <line y2="144" y1="153" x2="253.5" x1="253.5"/>
   <line y2="145" y1="152" x2="257" x1="250"/>
   <line y2="152" y1="145" x2="257" x1="250"/>
  </g>
  <line y2="350.4" y1="350.4" stroke="#0072bd" x2="87.584" x1="87.584"/>
  <line y2="123.52" y1="350.4" stroke="#d95319" x2="499.48" x1="87.584"/>
  <line y2="85.218" y1="350.4" stroke="#edb120" x2="253.61" x1="87.584"/>
  <line y2="246.26" y1="350.4" stroke="#7e2f8e" x2="119.1" x1="87.584"/>
  <line y2="151.87" y1="350.4" stroke="#77ac30" x2="352.69" x1="87.584"/>
  <line y2="350.4" y1="123.52" stroke="#4dbeee" x2="87.584" x1="499.48"/>
  <line y2="123.52" y1="123.52" stroke="#a2142f" x2="499.48" x1="499.48"/>
  <line y2="85.218" y1="123.52" stroke="#0072bd" x2="253.61" x1="499.48"/>
  <line y2="246.26" y1="123.52" stroke="#d95319" x2="119.1" x1="499.48"/>
  <line y2="151.87" y1="123.52" stroke="#edb120" x2="352.69" x1="499.48"/>
  <line y2="350.4" y1="85.218" stroke="#7e2f8e" x2="87.584" x1="253.61"/>
  <line y2="123.52" y1="85.218" stroke="#77ac30" x2="499.48" x1="253.61"/>
  <line y2="85.218" y1="85.218" stroke="#4dbeee" x2="253.61" x1="253.61"/>
  <line y2="246.26" y1="85.218" stroke="#a2142f" x2="119.1" x1="253.61"/>
  <line y2="151.87" y1="85.218" stroke="#0072bd" x2="352.69" x1="253.61"/>
  <line y2="350.4" y1="246.26" stroke="#d95319" x2="87.584" x1="119.1"/>
  <line y2="123.52" y1="246.26" stroke="#edb120" x2="499.48" x1="119.1"/>
  <line y2="85.218" y1="246.26" stroke="#7e2f8e" x2="253.61" x1="119.1"/>
  <line y2="246.26" y1="246.26" stroke="#77ac30" x2="119.1" x1="119.1"/>
  <line y2="151.87" y1="246.26" stroke="#4dbeee" x2="352.69" x1="119.1"/>
  <line y2="350.4" y1="151.87" stroke="#a2142f" x2="87.584" x1="352.69"/>
  <line y2="123.52" y1="151.87" stroke="#0072bd" x2="499.48" x1="352.69"/>
  <line y2="85.218" y1="151.87" stroke="#d95319" x2="253.61" x1="352.69"/>
  <line y2="246.26" y1="151.87" stroke="#edb120" x2="119.1" x1="352.69"/>
  <line y2="151.87" y1="151.87" stroke="#7e2f8e" x2="352.69" x1="352.69"/>
 </g>
</svg>
